<svg id="visual" viewBox="0 0 900 600" width="900" height="600" xmlns="http://www.w3.org/2000/svg" xmlns:xlink="http://www.w3.org/1999/xlink" version="1.1"><g stroke-width="1" stroke-linejoin="bevel"><path d="M430 314L502 261L480 194Z" fill="#115e59" stroke="#115e59"></path><path d="M480 194L371 186L430 314Z" fill="#116761" stroke="#116761"></path><path d="M573 124L480 89L480 194Z" fill="#116761" stroke="#116761"></path><path d="M480 194L480 89L371 186Z" fill="#117870" stroke="#117870"></path><path d="M311 102L268 237L371 186Z" fill="#129c8f" stroke="#129c8f"></path><path d="M371 186L268 237L430 314Z" fill="#14b8a6" stroke="#14b8a6"></path><path d="M430 314L589 320L502 261Z" fill="#13af9e" stroke="#13af9e"></path><path d="M502 261L592 169L480 194Z" fill="#129c8f" stroke="#129c8f"></path><path d="M589 320L592 169L502 261Z" fill="#117870" stroke="#117870"></path><path d="M266 316L393 420L430 314Z" fill="#12a596" stroke="#12a596"></path><path d="M430 314L526 439L589 320Z" fill="#115e59" stroke="#115e59"></path><path d="M268 237L266 316L430 314Z" fill="#12a596" stroke="#12a596"></path><path d="M592 169L573 124L480 194Z" fill="#119387" stroke="#119387"></path><path d="M371 66L311 102L371 186Z" fill="#118a7f" stroke="#118a7f"></path><path d="M480 89L371 66L371 186Z" fill="#14b8a6" stroke="#14b8a6"></path><path d="M393 420L526 439L430 314Z" fill="#12a596" stroke="#12a596"></path><path d="M311 102L229 187L268 237Z" fill="#115e59" stroke="#115e59"></path><path d="M268 237L180 334L266 316Z" fill="#115e59" stroke="#115e59"></path><path d="M526 439L580 414L589 320Z" fill="#129c8f" stroke="#129c8f"></path><path d="M393 420L477 471L526 439Z" fill="#13af9e" stroke="#13af9e"></path><path d="M526 439L617 480L580 414Z" fill="#12a596" stroke="#12a596"></path><path d="M266 316L292 429L393 420Z" fill="#118a7f" stroke="#118a7f"></path><path d="M393 420L375 471L477 471Z" fill="#119387" stroke="#119387"></path><path d="M186 363L292 429L266 316Z" fill="#129c8f" stroke="#129c8f"></path><path d="M331 479L375 471L393 420Z" fill="#129c8f" stroke="#129c8f"></path><path d="M563 0L474 0L480 89Z" fill="#129c8f" stroke="#129c8f"></path><path d="M480 89L474 0L371 66Z" fill="#116f68" stroke="#116f68"></path><path d="M371 66L315 0L311 102Z" fill="#116f68" stroke="#116f68"></path><path d="M474 0L388 0L371 66Z" fill="#115e59" stroke="#115e59"></path><path d="M311 102L223 62L229 187Z" fill="#116761" stroke="#116761"></path><path d="M580 414L672 337L589 320Z" fill="#118177" stroke="#118177"></path><path d="M589 320L730 209L592 169Z" fill="#14b8a6" stroke="#14b8a6"></path><path d="M690 0L563 0L573 124Z" fill="#118a7f" stroke="#118a7f"></path><path d="M292 429L331 479L393 420Z" fill="#119387" stroke="#119387"></path><path d="M375 471L437 600L477 471Z" fill="#13af9e" stroke="#13af9e"></path><path d="M229 187L180 334L268 237Z" fill="#13af9e" stroke="#13af9e"></path><path d="M292 429L189 484L331 479Z" fill="#117870" stroke="#117870"></path><path d="M388 0L315 0L371 66Z" fill="#14b8a6" stroke="#14b8a6"></path><path d="M180 334L186 363L266 316Z" fill="#14b8a6" stroke="#14b8a6"></path><path d="M734 64L573 124L592 169Z" fill="#115e59" stroke="#115e59"></path><path d="M573 124L563 0L480 89Z" fill="#12a596" stroke="#12a596"></path><path d="M315 0L223 62L311 102Z" fill="#14b8a6" stroke="#14b8a6"></path><path d="M229 187L91 287L180 334Z" fill="#115e59" stroke="#115e59"></path><path d="M667 460L714 372L672 337Z" fill="#119387" stroke="#119387"></path><path d="M477 471L617 480L526 439Z" fill="#116761" stroke="#116761"></path><path d="M480 600L617 480L477 471Z" fill="#118177" stroke="#118177"></path><path d="M777 262L730 209L672 337Z" fill="#118177" stroke="#118177"></path><path d="M672 337L730 209L589 320Z" fill="#129c8f" stroke="#129c8f"></path><path d="M667 460L672 337L580 414Z" fill="#116f68" stroke="#116f68"></path><path d="M617 480L667 460L580 414Z" fill="#14b8a6" stroke="#14b8a6"></path><path d="M315 0L232 0L223 62Z" fill="#13af9e" stroke="#13af9e"></path><path d="M68 239L91 287L229 187Z" fill="#115e59" stroke="#115e59"></path><path d="M714 372L777 262L672 337Z" fill="#119387" stroke="#119387"></path><path d="M730 209L734 64L592 169Z" fill="#116f68" stroke="#116f68"></path><path d="M811 212L777 262L900 334Z" fill="#14b8a6" stroke="#14b8a6"></path><path d="M186 363L189 484L292 429Z" fill="#116f68" stroke="#116f68"></path><path d="M310 600L437 600L375 471Z" fill="#117870" stroke="#117870"></path><path d="M82 418L189 484L186 363Z" fill="#119387" stroke="#119387"></path><path d="M117 64L229 187L223 62Z" fill="#116f68" stroke="#116f68"></path><path d="M180 334L82 418L186 363Z" fill="#117870" stroke="#117870"></path><path d="M816 108L734 64L730 209Z" fill="#118a7f" stroke="#118a7f"></path><path d="M734 64L690 0L573 124Z" fill="#115e59" stroke="#115e59"></path><path d="M310 600L375 471L331 479Z" fill="#115e59" stroke="#115e59"></path><path d="M617 480L686 600L667 460Z" fill="#12a596" stroke="#12a596"></path><path d="M437 600L480 600L477 471Z" fill="#13af9e" stroke="#13af9e"></path><path d="M232 0L117 64L223 62Z" fill="#116f68" stroke="#116f68"></path><path d="M117 64L68 239L229 187Z" fill="#119387" stroke="#119387"></path><path d="M189 484L310 600L331 479Z" fill="#115e59" stroke="#115e59"></path><path d="M833 376L777 262L714 372Z" fill="#13af9e" stroke="#13af9e"></path><path d="M777 262L811 212L730 209Z" fill="#14b8a6" stroke="#14b8a6"></path><path d="M0 303L82 418L91 287Z" fill="#13af9e" stroke="#13af9e"></path><path d="M91 287L82 418L180 334Z" fill="#118a7f" stroke="#118a7f"></path><path d="M189 484L205 600L310 600Z" fill="#116f68" stroke="#116f68"></path><path d="M480 600L611 600L617 480Z" fill="#129c8f" stroke="#129c8f"></path><path d="M817 527L833 376L714 372Z" fill="#13af9e" stroke="#13af9e"></path><path d="M811 212L816 108L730 209Z" fill="#115e59" stroke="#115e59"></path><path d="M734 64L808 0L690 0Z" fill="#117870" stroke="#117870"></path><path d="M817 527L714 372L667 460Z" fill="#118a7f" stroke="#118a7f"></path><path d="M811 212L900 189L816 108Z" fill="#116f68" stroke="#116f68"></path><path d="M103 600L205 600L189 484Z" fill="#116f68" stroke="#116f68"></path><path d="M0 434L79 484L82 418Z" fill="#14b8a6" stroke="#14b8a6"></path><path d="M82 418L79 484L189 484Z" fill="#116f68" stroke="#116f68"></path><path d="M611 600L686 600L617 480Z" fill="#116f68" stroke="#116f68"></path><path d="M0 125L0 227L68 239Z" fill="#12a596" stroke="#12a596"></path><path d="M68 239L0 303L91 287Z" fill="#118a7f" stroke="#118a7f"></path><path d="M232 0L72 0L117 64Z" fill="#12a596" stroke="#12a596"></path><path d="M117 64L0 125L68 239Z" fill="#14b8a6" stroke="#14b8a6"></path><path d="M0 227L0 303L68 239Z" fill="#117870" stroke="#117870"></path><path d="M816 108L808 0L734 64Z" fill="#118177" stroke="#118177"></path><path d="M72 0L0 125L117 64Z" fill="#13af9e" stroke="#13af9e"></path><path d="M900 334L900 189L811 212Z" fill="#118177" stroke="#118177"></path><path d="M816 108L900 77L808 0Z" fill="#117870" stroke="#117870"></path><path d="M833 376L900 334L777 262Z" fill="#116761" stroke="#116761"></path><path d="M900 415L900 334L833 376Z" fill="#116761" stroke="#116761"></path><path d="M686 600L817 527L667 460Z" fill="#119387" stroke="#119387"></path><path d="M0 303L0 434L82 418Z" fill="#116f68" stroke="#116f68"></path><path d="M79 484L103 600L189 484Z" fill="#129c8f" stroke="#129c8f"></path><path d="M0 600L103 600L79 484Z" fill="#117870" stroke="#117870"></path><path d="M900 189L900 77L816 108Z" fill="#118177" stroke="#118177"></path><path d="M817 527L900 415L833 376Z" fill="#13af9e" stroke="#13af9e"></path><path d="M0 434L0 489L79 484Z" fill="#13af9e" stroke="#13af9e"></path><path d="M72 0L0 0L0 125Z" fill="#118177" stroke="#118177"></path><path d="M686 600L796 600L817 527Z" fill="#12a596" stroke="#12a596"></path><path d="M817 527L900 511L900 415Z" fill="#14b8a6" stroke="#14b8a6"></path><path d="M900 77L900 0L808 0Z" fill="#116f68" stroke="#116f68"></path><path d="M900 600L900 511L817 527Z" fill="#129c8f" stroke="#129c8f"></path><path d="M0 489L0 600L79 484Z" fill="#14b8a6" stroke="#14b8a6"></path><path d="M796 600L900 600L817 527Z" fill="#116f68" stroke="#116f68"></path></g></svg>