<svg id="visual" viewBox="0 0 900 600" width="900" height="600" xmlns="http://www.w3.org/2000/svg" xmlns:xlink="http://www.w3.org/1999/xlink" version="1.1"><path d="M0 79L82 85L164 67L245 73L327 67L409 85L491 37L573 79L655 79L736 79L818 73L900 91L900 0L818 0L736 0L655 0L573 0L491 0L409 0L327 0L245 0L164 0L82 0L0 0Z" fill="#5eead4"></path><path d="M0 211L82 193L164 181L245 163L327 187L409 145L491 175L573 193L655 217L736 235L818 229L900 217L900 89L818 71L736 77L655 77L573 77L491 35L409 83L327 65L245 71L164 65L82 83L0 77Z" fill="#4cd4c0"></path><path d="M0 367L82 415L164 307L245 277L327 271L409 265L491 379L573 283L655 409L736 403L818 421L900 373L900 215L818 227L736 233L655 215L573 191L491 173L409 143L327 185L245 161L164 179L82 191L0 209Z" fill="#3abead"></path><path d="M0 409L82 517L164 385L245 349L327 391L409 313L491 481L573 373L655 511L736 463L818 481L900 439L900 371L818 419L736 401L655 407L573 281L491 377L409 263L327 269L245 275L164 305L82 413L0 365Z" fill="#27a99a"></path><path d="M0 601L82 601L164 601L245 601L327 601L409 601L491 601L573 601L655 601L736 601L818 601L900 601L900 437L818 479L736 461L655 509L573 371L491 479L409 311L327 389L245 347L164 383L82 515L0 407Z" fill="#0d9488"></path></svg>